<?xml version="1.0" encoding="utf-8"?>
<!-- Generator: Adobe Illustrator 19.0.0, SVG Export Plug-In . SVG Version: 6.00 Build 0)  -->
<svg version="1.1" id="Layer_1" xmlns="http://www.w3.org/2000/svg" xmlns:xlink="http://www.w3.org/1999/xlink" x="0px" y="0px"
	 viewBox="0 0 175.7 178.1" style="enable-background:new 0 0 175.7 178.1;" xml:space="preserve">
<style type="text/css">
	.st0{fill-rule:evenodd;clip-rule:evenodd;fill:#FFFFFF;stroke:#FFFFFF;stroke-width:2;stroke-miterlimit:10;}
	.st1{fill:#FFFFFF;stroke:#FFFFFF;stroke-width:2;stroke-miterlimit:10;}
</style>
<g>
	<g>
		<path class="st0" d="M100,20.3c1.7,2.3,1.9,7.8,2.9,9.9c5.3-8.8,5.1-19.6,11.6-28c0.7,2.5-1.1,5.2-2.1,7.5
			c-3.1,7.2-5.6,15.4-8.3,23c2.4-2.2,5.1-5.5,8.2-6.5c-1.6,3.3-5.9,5.6-8.1,8.6c-4.1-3-2.9-8.7-5.6-13.8c0.7-0.3,0.5-0.8,1.3-1
			C99.6,20.5,100.1,20.9,100,20.3z"/>
	</g>
	<g>
		<path class="st0" d="M40.1,3.9c0.2,0.1,0.4,0.3,0.7,0.4c1.6,7.4,2.3,15,4.7,22.3c2.3-2.6,2.1-6,3.5-7.6c1.3,1.1-1.1,7.2-1.9,8.6
			c-0.6,1.1-1.8,2-2.6,2.5c-3.3-2.9-7.5-5.6-8.7-8.9c2.3-1.3,4.7,2.9,7.1,4.2C42.3,19.3,39.3,11.3,40.1,3.9z M44.7,27.1
			c-0.1,0.2-0.3,0.4-0.4,0.7c0.5,1,1.7-0.5,1-0.8C45.1,27.1,44.9,27.3,44.7,27.1z"/>
	</g>
	<g>
		<path class="st0" d="M151.2,50.9c-0.4,3.5-3.6,6.9-3.8,10.4C155,55.2,162.2,47,170,42.9c-7.6,7.3-16.2,13.6-21.3,20.3
			c3.5-0.6,7.1-4.9,10.5-4.8c0.1,1.4-2.2,1.3-3.4,2.1c-3.5,2-7.4,5.3-10.5,4.8C146.1,60.5,147.4,55.6,151.2,50.9z"/>
	</g>
	<g>
		<path class="st1" d="M148.4,104.7c-0.1-0.1-0.2-0.3-0.2-0.4c0-0.1-0.1-0.5-0.3-0.9c-0.7-1.6-1.5-3.6-1.5-3.9
			c0-0.1,0.3-0.8,0.6-1.5c0.3-0.7,0.6-1.4,0.6-1.7c0-0.3,0.1-0.6,0.2-0.7c0.1-0.1,0.1-0.9,0.1-1.8c0-1.3-0.1-1.9-0.4-2.8
			c-0.4-1.1-0.9-2.4-1.2-2.9c-0.1-0.1-0.3-0.5-0.5-0.9c-0.2-0.4-0.4-0.7-0.5-0.9c-0.1-0.1-0.3-0.4-0.4-0.6c-0.6-0.9-2.5-3-2.8-3
			c-0.1,0-0.3-0.1-0.5-0.3c-0.2-0.2-1.1-0.7-1.9-1.1c-0.9-0.4-1.8-0.9-2.1-1c-0.9-0.4-1.9-1.3-2.9-2.6c-0.6-0.7-1-1.3-1-1.4
			c0-0.1-0.1-0.2-0.1-0.2c-0.2,0-0.9-1.7-1.7-3.8c-0.5-1.6-1.1-2.9-1.8-4.2c-0.4-0.7-2-2.5-2.4-2.7c-0.2-0.1-0.6-0.4-0.9-0.7
			c-0.3-0.3-0.6-0.5-0.7-0.5c-0.1,0-0.3-0.1-0.3-0.3c-0.1-0.3-1.6-1.1-2.4-1.3c-1.6-0.4-3.5-0.6-6.6-0.8c-1.3-0.1-2.8-0.2-3.3-0.4
			c-0.5-0.1-0.9-0.2-1-0.2c-0.1,0-0.2,0-0.2-0.1c0-0.1-0.3-0.3-0.7-0.5c-0.8-0.4-2-1.1-3.7-2.2c-1.2-0.8-1.9-1.5-4.4-4
			c-1.3-1.4-2.6-2.5-3.9-3.4c-0.3-0.2-0.8-0.6-1.1-0.8c-0.3-0.2-0.9-0.6-1.4-0.8c-0.5-0.3-1.1-0.6-1.4-0.8c-0.3-0.2-0.8-0.3-1.3-0.3
			c-0.5,0-0.9-0.1-0.9-0.2s-0.7-0.1-1.6-0.1c-1.6,0-2.6,0.2-4.1,0.7c-0.9,0.3-3.8,0.5-4.1,0.3c-0.1-0.1-0.5-0.2-0.9-0.3
			c-0.4-0.1-0.7-0.2-0.7-0.3c0-0.1-0.1-0.1-0.2-0.1c-0.1,0-0.6-0.2-1-0.4c-1.3-0.6-3-0.8-5.1-0.5c-1,0.2-2,0.7-2.6,1.4
			c-0.3,0.4-0.6,0.7-0.7,0.6c-0.1,0-0.2,0-0.3,0.1c-1.5,1.2-3.3-0.9-4.6-1.2c-1.7-0.4-3,0.7-4.6,0.8c-1.1,0.1-2-0.5-3-0.7
			c-2.9-0.8-6.3-1.1-9.3-1.1c-3.8,0-6,0.6-9,3c-1.4,1.2-3.3,1.5-4.7,2.6c-1.7,1.3-2.4,3.5-4.6,4.2c-1.4,0.4-3.8,1-4.2,1
			c-0.2,0-0.4,0.1-0.5,0.2c-0.1,0.1-0.6,0.2-1.3,0.2c-0.6,0-1.4,0.1-1.6,0.2c-0.3,0.1-1,0.2-1.6,0.3c-0.6,0-1.2,0.1-1.4,0.2
			c-0.1,0.1-0.4,0.1-0.6,0.1c-0.2,0-0.5,0-0.7,0.2c-0.2,0.1-0.7,0.3-1.1,0.4c-1.9,0.6-4.1,1.7-5.1,2.8c-0.3,0.3-0.7,0.7-0.9,0.9
			c-0.3,0.2-0.7,0.7-1,1.1c-0.3,0.4-0.7,0.9-0.9,1.2c-0.2,0.2-0.6,0.8-0.8,1.2c-0.2,0.4-0.4,0.8-0.4,0.8C9.8,68,8.8,71,8.8,71.7
			c0,0.2-0.1,0.4-0.2,0.5c-0.2,0.2-0.5,2.3-0.6,4.4c-0.1,2.1,0.2,4.3,0.7,6.8c0.4,1.9,0.4,2.8,0.1,3.9c-0.3,0.9-0.9,1.5-2.6,2.6
			c-0.6,0.4-1.1,0.8-1.1,0.8c0,0.1-0.1,0.1-0.2,0.1c-0.3,0-1.3,0.8-1.8,1.4C3,92.6,2.7,92.9,2.6,93C2,93.7,1.1,95.8,1,97.2
			c-0.1,0.8,0,2.5,0.2,2.7c0.1,0.1,0.2,0.4,0.2,0.8c0.6,3.4,3.6,5.7,3.1,9.3c-0.3,2.5-1.7,5.6,0.8,7.6c-0.4,2,3,5.1,4.4,6.3
			c1,0.9,2.2,1.8,2.3,1.8c0.1,0,0.6,0.3,1.2,0.6c0.6,0.3,1.5,0.9,2,1.2c1.7,1,3,1.5,3.9,1.6c0.5,0.1,1.2,0.3,1.6,0.4
			c0.4,0.2,1,0.3,1.3,0.3c0.4,0,1.1,0.2,1.6,0.3c0.8,0.3,1.4,0.3,3.4,0.3c3,0,4.1-0.2,8.8-1.6c0.6-0.2,1.2-0.3,1.3-0.3
			c0.2,0,0.3-0.1,0.3-0.1c0,0,0.2-0.1,0.4-0.1c0.4-0.1,1.3-0.5,2.6-1.4c1.3-0.8,3.1-2.7,3.7-3.7c0.3-0.5,0.7-1.3,0.9-1.8
			c0.3-0.5,0.7-1.3,1.1-1.9c0.6-0.9,0.7-1,1.3-1.1c0.6-0.1,0.8,0,1.7,0.5c0.5,0.3,1.1,0.6,1.2,0.6c0.1,0,0.4,0.1,0.7,0.3
			c0.9,0.5,2.2,0.5,3.4,0.1l1.2-0.4l0.9,0.7c0.5,0.4,1,0.7,1,0.8c0.4,0.6,3,1.3,5,1.3c0.9,0,1.7,0.1,1.9,0.2c0.2,0.1,1,0.8,1.8,1.6
			c1.6,1.6,4.2,3.4,5.6,3.9c0.5,0.2,1.2,0.4,1.7,0.6c2.7,0.9,6.8,1.1,8.5,0.3c0.4-0.2,0.8-0.3,0.9-0.3c0.1,0,0.7-0.3,1.3-0.7
			c1.7-1,3.6-1.4,5.5-1c0.7,0.1,2.1,1.2,2.4,1.9c0.1,0.2,0.2,0.4,0.3,0.6c0.7,1.2,1.2,2,1.2,2.3c0,0.1,0.1,0.5,0.2,0.7
			c0.9,1.8,2.3,4.8,2.7,6c0.1,0.4,0.5,1.4,0.9,2.2c1,2.3,2.5,6.4,2.7,7.8c0.1,0.3,0.2,0.8,0.4,1.1c0.1,0.3,0.3,0.8,0.3,1.3
			c0,0.5,0.1,1,0.2,1.2c0.1,0.2,0.2,0.6,0.2,1c0,0.4,0.1,1.1,0.2,1.6c0.1,0.5,0.2,1.4,0.3,2c0.1,0.6,0.2,1.6,0.3,2.3
			c0.1,0.8,0.2,2.6,0.3,4.9c0,2.2,0.1,4.2,0.3,5.1c0.1,0.8,0.3,2.1,0.4,3c0.2,2,0.5,3.5,0.7,3.5c0.1,0,0.3,0.2,0.4,0.5
			c0.2,0.3,0.6,0.6,0.9,0.8c1.3,0.7,2.7,0.1,4,0.1c1.5,0,4.3,0.9,5.6-0.1c1.6-1.3,0.7-4.9,0.8-6.6c0.2-2.7,0.3-5.4,0.5-8.1
			c0.1-1,0.1-2.5,0.2-3.5c0-1,0.2-2.1,0.3-2.5c0.2-0.7,0.7-2.8,0.8-3.6c0-0.2,0.1-0.4,0.1-0.6c0.1-0.1,0.2-0.6,0.3-1.1
			c0.1-0.4,0.6-1.7,1.1-2.7c0.5-1.1,0.9-2.1,1-2.2c0.1-0.4,0.8-0.4,2.4,0c1.8,0.4,3.3,0.4,5.3,0c1-0.2,1.8-0.4,1.8-0.5
			c0-0.1,0.2-0.1,0.4-0.1c0.9,0,5.6-1.5,5.9-1.8c0.1-0.1,0.3-0.3,0.6-0.3c0.5-0.1,0.8-0.4,3.2-2.8c1-1,2-2,2.1-2.3
			c0.2-0.3,0.3-0.6,0.4-0.7c0.3-0.2,1.5-2,1.5-2.2c0-0.1,0.1-0.3,0.2-0.5c0.4-0.4,0.7-2,1-4.1c0.2-1.6,0.1-2.1-0.1-3.5
			c-0.1-0.9-0.4-2.2-0.5-2.9c-0.1-0.7-0.3-1.7-0.5-2.2c-0.4-1.3-0.6-2.5-0.3-3.2c0.3-1,1.5-3.8,1.8-4.1c0.1-0.2,0.4-0.3,0.5-0.3
			c0.1,0,0.2-0.1,0.2-0.2c0-0.1,0-0.2,0.1-0.2c0.5,0.1,1.9-2.1,1.9-2.9c0-0.2,0.2-0.5,0.4-0.7c0.3-0.3,0.5-0.7,0.5-1.2
			C149,108.1,148.7,104.9,148.4,104.7z M68.5,49.1c0.1,0,0.2,0.1,0.2,0.2c0,0.1,0,0.2-0.1,0.2c0,0-0.1-0.1-0.2-0.2
			C68.4,49.1,68.4,49.1,68.5,49.1z M35.4,55.9c0.1,0.1,0.1,0.1-0.1,0.1c-0.2,0-0.3,0-0.2-0.1C35.1,55.9,35.3,55.9,35.4,55.9z
			 M15.3,123.6c-0.1,0-0.2-0.1-0.2-0.2c0-0.1,0-0.2,0.1-0.2s0.1,0.1,0.2,0.2C15.5,123.6,15.4,123.6,15.3,123.6z M37.5,123.7
			c-0.1,0.1-0.3-0.1-0.3-0.3c0-0.1,0.1-0.1,0.2,0C37.5,123.5,37.6,123.7,37.5,123.7z M38.7,123c-0.1,0-0.2-0.1-0.2-0.2
			c0-0.1,0.1-0.2,0.2-0.2c0.1,0,0.2,0.1,0.2,0.2C38.9,122.9,38.8,123,38.7,123z M111.4,176.4c-0.1,0.1-0.1,0.1-0.1-0.1
			c0-0.2,0-0.3,0.1-0.2C111.4,176.1,111.4,176.3,111.4,176.4z M116.8,143.5c-0.1,0.2-0.4,0.8-0.6,1.4c-0.3,0.6-0.5,1.2-0.7,1.3
			c-0.1,0.1-0.4,0.9-0.6,1.6c-0.4,1.3-0.6,2-1,3.9c-0.1,0.5-0.3,0.9-0.3,0.9c-0.2,0-0.4,1.6-0.7,4c-0.1,1-0.3,2.1-0.3,2.4
			c-0.2,0.9-0.5,7.7-0.4,9c0,0.5,0.1,1.7,0.2,2.6c0.1,1,0.1,1.7-0.1,1.9c-0.1,0.3-0.5,0.3-2.8,0.3l-2.6,0l-0.1-1.2
			c-0.1-0.7-0.1-3.4-0.2-6c0-2.6-0.1-4.9-0.2-5.1c-0.1-0.2-0.1-0.8-0.2-1.4c0-0.6-0.1-1.5-0.2-1.9c-0.1-0.4-0.2-1.3-0.3-2
			c-0.1-0.7-0.3-1.7-0.4-2.3c-0.1-0.6-0.4-1.8-0.6-2.7c-0.4-1.8-0.8-3.3-1.4-4.7c-0.2-0.5-0.4-1.2-0.5-1.5c-0.1-0.3-0.3-0.8-0.4-1.2
			c-0.1-0.3-0.3-0.7-0.4-0.9c-0.1-0.2-0.4-1-0.7-1.8c-0.3-0.8-0.6-1.6-0.6-1.7c0-0.1-0.1-0.5-0.3-0.8c-0.2-0.3-0.4-1-0.6-1.5
			c-0.3-0.9-1.2-2.7-1.5-3.2c-0.1-0.1-0.3-0.5-0.4-0.9c-0.1-0.4-0.3-0.8-0.4-0.9c-0.1-0.1-0.3-0.5-0.4-0.8c-0.1-0.3-0.3-0.7-0.3-0.8
			c-0.2-0.5,0.3-0.3,1.1,0.3c0.8,0.7,1.3,1,2.2,1.8c0.4,0.3,0.8,0.6,0.8,0.8c0.1,0.2,0.5,0.6,0.9,0.9c1.2,0.9,1.5,1.3,1.5,1.5
			c0,0.2,2.1,2.3,2.3,2.3c0.1,0,0.9,0.5,1.8,1.1c0.9,0.6,1.7,1.1,1.8,1.1c0.1,0,0.8,0.4,1.6,0.9c0.8,0.5,1.6,0.9,1.6,0.9
			c0,0,0.4,0.2,0.7,0.4c0.4,0.2,1.2,0.6,2,0.8C116.7,142.9,117,143.1,116.8,143.5z M118.7,145.7c-0.1,0.1-0.2,0-0.2-0.1
			c0-0.1,0.1-0.2,0.2-0.2c0.1,0,0.2,0,0.2,0.1C118.8,145.6,118.8,145.7,118.7,145.7z M140.4,138.6c-0.1,0.2-0.1,0.2-0.1,0.1
			c0-0.1,0.1-0.4,0.1-0.6c0.1-0.2,0.1-0.2,0.1-0.1C140.5,138.1,140.5,138.4,140.4,138.6z M144.3,108.4c-0.4,0.9-0.7,1.7-0.7,1.8
			c0.1,0.2-0.7,1.1-1.8,2c-0.2,0.1-0.3,0.3-0.2,0.3c0,0-0.2,0.6-0.5,1.2c-0.3,0.6-0.8,1.7-1,2.4c-0.3,1-0.6,1.3-1.2,1.9
			c-1.7,1.6-3.6,2-6.7,1.8c-2.2-0.2-3.3-0.1-3.6,0.2c-0.1,0.1-0.4,0.3-0.6,0.3c-0.2,0.1-0.3,0.2-0.3,0.4c0,0.3-0.7,1.8-1.1,2.3
			c-0.3,0.4-1.5,0.4-1.9,0c-0.3-0.3-0.8-0.2-0.8,0.2c0,0.1,0.2,0.4,0.4,0.7c0.4,0.4,1,0.5,2.2,0.5c0.7,0,1.6-1.1,2-2.2l0.3-0.9
			l0.7,0.1c1.6,0.2,1.9,0.3,1.9,0.9c0,0.3,0,1.1-0.2,1.7c-0.4,2.3-2.1,4.1-4.2,5.2c-1.5,0.8-2.9,0.8-4.3,1.2
			c1.8,0.2,3.7,0.8,5.6,0.2c1.9-0.6,3.1-2.5,3.8-4.3c0.4-1.1,0.3-4.6,1.8-4.6c0.4,0,0.4,0.1,0.6,1.1c0.1,0.6,0.2,2,0.2,3
			c0,2.6-0.2,3.3-1.4,4.5c-1.2,1.2-2.7,2.5-3.2,2.9c-0.2,0.1-0.7,0.5-1,0.8c-0.3,0.3-0.8,0.6-1,0.6c-0.8,0.2-1.4,0.5-1.4,0.7
			c0,0.1,0.2,0.2,0.5,0.1c1-0.2,2.1-0.4,2.3-0.6c0.1-0.1,0.4-0.2,0.6-0.2c0.2,0,0.4-0.1,0.4-0.1c0,0,0.4-0.3,0.8-0.6
			c1.6-1.3,3.3-3.1,3.9-4.1c0.6-1,0.6-1,0.7-3c0-1.1,0-2.5-0.1-3.3c-0.3-2.4-0.4-2.1,1-2.3c1.2-0.1,2-0.4,2.7-0.9
			c0.4-0.2,0.4-0.2,0.5,0c0.1,0.2,0.2,0.6,0.4,1.1c0.2,0.4,0.4,1.2,0.4,1.8c0.1,0.6,0.2,1.4,0.3,1.7c0.3,1.1,0.2,5.2-0.1,6.1
			c-0.1,0.4-0.3,0.8-0.3,1c0,1.3-2.8,4.1-3.8,4.9c-1.4,1.1-3.4,2-5,2.8c-4.5,2.1-9.9,1.7-14.5,0.3c-1.5-0.5-3.6-1.7-5.8-3.5
			c-0.1-0.1-0.6-0.5-1.1-0.9c-2.5-2-5.1-3.1-7.8-4.6c-1.6-0.9-2.5-2.4-3.8-3.5c-1.4-1.2-3.3-1.9-4.7-3.2c-0.3-0.2-0.8-0.6-1.2-0.8
			c-0.4-0.2-0.7-0.4-0.7-0.5c0-0.3,1.4-1.3,2.4-1.6c1-0.4,2.8-0.7,2.8-0.5c0,0.1,0.3,0.2,0.6,0.2c0.3,0,1.3,0.4,2.1,0.8
			c1.9,0.9,2.6,1.1,3.2,1.1c1.1,0,0.9-0.9-0.3-1.3c-0.5-0.2-1-0.5-1.2-0.7c-0.8-0.9-5.1-2.2-7.3-2.2c-0.5,0-1.3,0.1-1.8,0.2
			c-0.4,0.1-1.2,0.4-1.8,0.5c-0.8,0.2-1.2,0.4-1.7,1c-1.6,1.6-1.7,1.7-2.5,1.7c-1.3,0.1-2.9,0.5-4.4,1.4c-1.9,1-2.7,1.2-4.5,1.2
			c-3.5,0-7-1.5-9.9-4.4c-1.4-1.4-1.8-1.7-3-2.3c-0.8-0.4-1.1-0.5-3.7-0.4c-1.6,0-1.9-0.1-4-1.5c-0.5-0.3-1.3-0.7-1.8-0.8
			c-0.9-0.2-2.4-0.1-2.7,0.2c-0.1,0.1-0.6,0.2-1.1,0.2c-0.9,0.1-1,0-1.6-0.6c-0.4-0.4-0.8-0.7-0.9-0.7c-0.1,0-0.2-0.1-0.2-0.2
			c0-0.1-0.7-0.4-1.7-0.6l-1.7-0.4l-0.7,0.4c-0.4,0.2-0.7,0.4-0.6,0.4c0,0-0.1,0.2-0.2,0.4c-0.3,0.4-0.3,0.4-0.4,0.1
			c-0.1-0.3-0.1-0.3-0.4,0.2c-0.1,0.3-0.4,0.8-0.7,1.3c-0.5,1-0.7,1.4-0.8,2.3c0,0.1-0.1,0.2-0.2,0.2c-0.1,0-0.1-0.1-0.1-0.2
			c0.1-0.1,0-0.2,0-0.2c-0.2,0-0.7,1.3-0.6,1.5c0,0-0.2,0.3-0.5,0.6c-0.3,0.3-0.5,0.6-0.5,0.7c0.1,0.1,0,0.2-0.1,0.1
			c-0.1-0.1-0.6,0.2-1,0.7c-0.6,0.6-0.8,0.9-0.7,1.1c0.1,0.3,0.1,0.3-0.1,0c-0.2-0.3-0.2-0.3-0.7,0c-0.3,0.2-0.6,0.3-0.6,0.3
			c0,0-0.4,0.1-0.7,0.3c-0.3,0.1-0.7,0.3-0.8,0.3c-0.5,0-4.2,1-4.3,1.2c-0.1,0.1-0.1,0.1-0.2,0c-0.1-0.2-0.2-0.2-0.7,0.1
			c-0.4,0.2-0.9,0.3-1.1,0.3c-0.2,0-1.4,0-2.5,0c-2.4,0-5.5-0.4-7-1c-0.5-0.2-1-0.4-1.2-0.5c-0.2-0.1-0.8-0.3-1.3-0.4
			c-0.6-0.2-1.1-0.4-1.3-0.6c-0.2-0.2-0.4-0.3-0.5-0.2c-0.1,0.1-0.2,0-0.2-0.1c0-0.1-0.2-0.2-0.4-0.3c-2.2-1.1-3.8-2.3-4.7-3.6
			c-0.4-0.6-0.9-1.1-1-1.2c-0.2-0.1-1.6-2.8-1.6-3.1c0-0.1-0.1-0.4-0.3-0.7c-0.3-0.7-0.2-2.4,0.3-5.1c0.5-2.6,0.4-4.1-0.4-5.2
			c-0.2-0.2-0.3-0.6-0.3-0.7c0-0.1-0.5-0.6-1-1.1c-1.6-1.3-1.7-2.5-0.7-4.6c0.7-1.3,2.5-2.9,3.3-2.9c0.1,0,0.6-0.3,1.1-0.7
			c0.5-0.4,0.9-0.6,0.9-0.6c0.1,0.1,0.8-0.5,0.8-0.7c0-0.1,0.1-0.2,0.1-0.2c0.1,0,0.4-0.4,0.6-1c0.3-0.5,0.6-1.2,0.7-1.4
			c0.5-0.9,0.1-5.6-0.7-7.9c-0.9-2.7-0.6-7,0.7-9.9c0.2-0.4,0.4-1,0.6-1.3c0.4-1,2-3.1,3-4.1c1.1-1,2.7-2,4.1-2.4
			c0.5-0.2,1-0.3,1.1-0.4c0.2-0.1,1.8-0.4,3.5-0.6c0.5-0.1,1-0.1,1.2-0.2c0.1,0,0.9-0.1,1.6-0.2c0.7-0.1,1.7-0.2,2-0.3
			c0.4-0.1,0.8-0.2,0.9-0.2c0.6-0.1,3.1-1,3.3-1.2c0.1-0.1,0.3-0.2,0.3-0.2c0.1,0,0.5-0.3,0.9-0.7c0.4-0.4,1.1-0.8,1.4-1
			c0.4-0.2,0.5-0.4,0.5-0.6c0-0.5,2.7-3.3,3.3-3.8c2.3-2.2,5.9-3.5,8.9-4.2c4.2-0.9,8.3,2.3,12.6,2.4c3.2,0.1,4.2-2.7,7.5-0.9
			c1.1,0.6,1.7,1.4,3.1,1.4c1.5,0.1,2.5-1.5,3.7-1.5c0.1,0,0.2-0.1,0.1-0.1c0-0.1,0.2-0.2,0.5-0.3c0.3-0.1,0.6-0.3,0.6-0.4
			c0-0.2,0.6-0.1,2.1,0.1c0.4,0.1,1.3,0.4,2.1,0.8c0.8,0.4,1.8,0.8,2.1,0.9c0.4,0.1,1,0.4,1.4,0.5c0.6,0.3,0.9,0.3,2.1,0.2
			c1.7-0.1,2.8-0.3,3-0.6c0.1-0.1,0.1-0.2,0.1-0.1c0,0.1,0.3,0,0.7-0.1c0.8-0.3,4-0.3,4.5-0.1c0.2,0.1,0.7,0.3,1.2,0.6
			c1.6,0.7,4.2,2.8,5.6,4.5c0.7,0.8,2.6,2.8,3,3.1c0.1,0.1,0.7,0.5,1.2,1c0.5,0.4,1.3,1.1,1.8,1.4c0.5,0.3,1.3,0.8,1.8,1.2
			c0.5,0.3,1.1,0.6,1.3,0.7c0.2,0.1,0.5,0.2,0.6,0.3c0.1,0.1,0.3,0.2,0.5,0.2c0.1,0,0.6,0.1,0.9,0.3c0.4,0.2,0.8,0.3,1,0.3
			c0.2,0,0.6,0.1,0.8,0.2c0.4,0.2,3.3,0.4,6.2,0.6c0.9,0.1,1.8,0.1,2,0.2c1,0.2,3.6,1.7,3.9,2.3c0.6,1.3,0.9,1.9,0.9,2.1
			c0,0.1,0.1,0.4,0.3,0.7c0.2,0.3,0.4,1,0.6,1.5c0.2,0.5,0.6,1.5,1,2.2c0.4,0.7,1.1,1.8,1.5,2.5c0.9,1.6,2.7,3.7,4.3,5.1
			c1.1,0.9,3.5,2.3,4.1,2.3c0.1,0,0.2,0.1,0.2,0.1s0.3,0.3,0.8,0.5c0.8,0.3,2.6,2.1,2.6,2.4c0,0.1,0.2,0.6,0.4,1
			c0.8,1.4,0.6,3.2-0.8,6c-0.3,0.6-0.5,1.5-0.6,2c-0.1,0.8-0.1,1.1,0.3,1.9c0.7,1.6,1,2.1,1.4,2.8c0.5,0.8,1.1,2.9,1.1,3.8
			C145.1,106.7,144.8,107.5,144.3,108.4z"/>
		<path class="st1" d="M138.6,108.8c0,0.9-0.2,1.9-0.5,2.5c-0.2,0.4-1.5,1.6-2.1,2c-0.7,0.5-2.8,0.2-3.8-0.5c-0.4-0.2-0.8-0.5-1-0.6
			c-0.2-0.1-0.4-0.3-0.5-0.4c-0.1-0.1-0.4-0.2-0.7-0.2c-0.8,0-2.2,1.4-2.2,2.1c0,0.4-0.2,0.6-0.8,1.2c-1.6,1.3-2.8,1.7-4.3,1.4
			c-1.5-0.3-3.2-1.2-4.2-2.1c-1-1-1.6-1.8-1.6-2c0-0.3-0.9-1.1-1.4-1.2c-0.6-0.2-2.3,0.2-3.1,0.5c-1.1,0.6-1.7,2.1-2.7,2.9
			c-1.4,1-3.1,1.5-4.8,1.1c-1.3-0.3-2.3-1.4-3.7-1.6c-0.9-0.1-1.8,0.2-2.6,0.3c-0.1,0.3-0.1,0.5,0,0.8c0.1,0.3,0.5,0.5,1,0.7
			c0.5,0.2,0.9,0.3,1,0.4c0.1,0.1,0.6,0.3,1.1,0.4c0.5,0.1,1,0.3,1.1,0.4c0.1,0.1,0.2,0.1,0.3,0.1c0.1,0,0.7,0,1.3,0.1
			c1.3,0.3,2.6,0.3,3.6,0.1c0.6-0.1,1-0.5,2-1.5c0.7-0.7,1.6-1.7,1.9-2.2c1.1-1.6,3-2.2,3.6-1.2c0.1,0.2,0.3,0.3,0.4,0.3
			c0.1,0,0.3,0.2,0.4,0.5c0.2,0.5,1.5,2,1.8,2c0.1,0,0.3,0.2,0.4,0.4c0.2,0.2,1,0.7,2,1c1.4,0.6,1.8,0.6,3,0.6
			c1.2,0,1.5-0.1,2.4-0.5c1.7-0.8,2.6-1.6,2.9-2.6c1-2.7,2.4-0.3,3.9,0.2c3.2,1,9.7-2.7,6.2-6.4
			C138.6,108.3,138.6,108.5,138.6,108.8z"/>
		<path class="st1" d="M31.2,86.8c-0.4-0.7-1.1-1.2-2-1.3c-0.1,2.5,4.9,7.9-1.1,7.8l-1,0L26.7,94c-0.3,0.7-0.3,0.7,0,1.3
			c0.3,0.5,0.3,0.9,0.3,2.2c0,1.1-0.1,1.7-0.2,1.8c-0.1,0.1-0.2,0.3-0.2,0.4c0,0.2-0.3,1-0.7,1.9c-0.4,0.7-2.2,2.1-3.5,2.5
			c-2.3,0.8-3.3,0.9-7.5,0.7c-1.8-0.1-2.8-0.1-3,0c-0.3,0.2-0.2,0.2,1.3,0.4c0.2,0,0.5,0.1,0.7,0.2c0.1,0.1,0.9,0.2,1.8,0.2
			c2.3,0.2,3.3,0.2,4.8-0.1c1.7-0.3,3-0.8,3.7-1.4c0.3-0.2,0.6-0.4,0.6-0.4c0.1,0,0.4-0.2,0.8-0.5c0.3-0.3,0.6-0.6,0.7-0.6
			c0.2,0,0.6-0.6,1.2-1.6c0.4-0.7,0.7-1.7,1.3-3.7c0.2-0.8,0.2-2.1,0-2.3c-0.4-0.2-0.1-0.5,1-1c2.3-0.9,2.9-2.1,2.6-4.4
			C32,88.9,31.7,87.7,31.2,86.8z"/>
		<path class="st1" d="M94.1,100.9l-0.1,0.5c-0.2,1.1-1,2.6-1.5,3.1c-0.7,0.7-2.1,1.2-4,1.3c-1.6,0.1-3.4,0-3.5-0.3
			c-0.1-0.3-0.5-0.2-1,0.4c-0.4,0.4-0.7,0.6-1.2,0.7c-0.6,0.1-0.8,0-1.7-0.6c-0.6-0.4-1.2-0.8-1.4-1.1c-0.2-0.2-0.8-0.7-1.2-1
			c-0.8-0.7-1-0.7-1.8-0.3c-0.8,0.4-1.1,0.7-1.7,2.1c-1,2-2.5,3.7-3.9,4.3c-1.2,0.5-5.4,0.4-6.9-0.2c-0.5-0.2-2-1.3-3.4-2.5
			c-1-0.9-1.4-1-1.5-0.4c-0.1,0.4,0.8,1.3,1.6,1.8c0.3,0.2,0.5,0.4,0.7,0.6c0.6,0.8,2.8,1.8,4.5,2c3,0.3,5.4,0,6.1-0.8
			c0.3-0.3,0.5-0.5,0.6-0.5c0.2,0,1.4-1.1,2-1.9c0.3-0.3,0.6-1.1,0.8-1.6c0.4-1.1,0.7-1.4,1.4-1.8c0.5-0.2,0.5-0.2,1.2,0.4
			c0.4,0.4,0.8,0.7,1,0.7s0.3,0.1,0.3,0.2c0,0.2,0.7,0.8,1,0.8c0.1,0,0.4,0.2,0.6,0.3c0.2,0.2,0.4,0.3,0.5,0.3
			c0.1,0,0.2,0.1,0.2,0.1c0,0.1,0.4,0.1,0.9,0.1c0.7-0.1,1-0.2,1.3-0.5c0.5-0.5,0.5-0.5,1.4-0.3c1.2,0.2,4.6,0.2,4.7-0.1
			c0-0.1,0.2-0.2,0.4-0.2c0.4,0,0.8-0.2,1.9-0.9c0.6-0.4,1-0.8,1.2-1.4c0.4-0.9,0.6-2.5,0.4-3L94.1,100.9z"/>
		<path class="st1" d="M43.3,60.6c0-0.2-0.1-0.3-0.9-0.2c-0.9,0.1-2.3,0.5-2.9,0.8c-0.6,0.3-1.6,1.6-1.5,1.8
			c0.1,0.1,0.1,0.2-0.1,0.1c-0.1-0.1-0.2,0.2-0.3,0.9c-0.1,0.5-0.1,1.1-0.1,1.2c0,0.3-0.6,0.3-2.7,0.1c-0.7-0.1-1.7,0-2.9,0.1
			c-1,0.1-2.2,0.3-2.7,0.3c-1.5,0.1-3.3,1.1-4,2c-0.2,0.3-0.7,0.9-0.9,1.1c-0.3,0.3-0.7,0.8-0.9,1.2C23,71,22,74.6,22.1,75.3
			c0,0.2,0,0.5-0.1,0.5c-0.2,0,0.3,2.8,0.6,3.1c0.1,0.1,0.1,0.3,0.1,0.6c0,0.4,0.1,0.4,0.5,0.3c0.3-0.1,0.6-0.1,0.6-0.2
			c0,0-0.1-0.5-0.2-1.1c-0.4-1.8-0.5-3.3-0.2-4.6c0.3-1.4,1-2.9,1.5-3.3c0.2-0.2,0.5-0.5,0.7-0.8c0.5-0.7,1.9-1.6,3.2-1.9
			c0.4-0.1,1.1-0.3,1.7-0.4c0.5-0.1,1.7-0.3,2.6-0.3c0.9,0,1.9-0.2,2.2-0.2c0.3-0.1,0.9-0.2,1.2-0.2c1.4,0,2.2-0.7,1.9-1.7
			c-0.2-0.8,1.3-3,2-3c0.2,0,0.2-0.1,0.2-0.2c-0.1-0.1,0-0.1,0.2-0.1c0.1,0.1,0.4,0,0.5-0.2c0.1-0.1,0.4-0.2,0.5-0.2
			C42.2,61.5,43.3,60.9,43.3,60.6z"/>
		<path class="st1" d="M105.8,83.9c0.1,0,0.3-0.3,0.5-0.8c0.4-0.9,2.1-2.7,2.5-2.6c0.1,0,0.7-0.1,1.3-0.4c2-0.8,4.5-0.4,5.5,0.7
			c0.2,0.2,0.4,0.4,0.5,0.4c0.3,0,0.9,1,1,1.6c0.1,0.3,0.2,0.6,0.4,0.7c0.1,0.1,0.2,0.2,0.1,0.1c-0.1-0.1-0.2,0-0.2,0.3
			c0,0.3,0,0.3,0.2,0.1c0.1-0.1,0.2-0.2,0.2,0c0,0.1-0.1,0.2-0.2,0.3c-0.1,0.1-0.2,0.5-0.3,1.1c-0.1,0.9-0.6,2.6-0.9,3
			c-0.1,0.1-0.2,0.4-0.2,0.6c0,0.2-0.1,0.5-0.2,0.5c-0.3,0.2-0.3,1.4,0,2.1c0.4,0.8,1,1.1,2.8,1.3c2.4,0.3,4.3,0.8,5.2,1.5
			c0.5,0.3,0.9,0.6,0.9,0.7c0,0.1,0.1,0.1,0.3,0.1c0.3,0,1.3,1.1,2.1,2.1c0.6,0.7,0.6,0.9,0.7,2.1c0.1,2.5-0.7,3.6-3.3,3.9
			c-1.5,0.2-3.1,0.1-4.1-0.4c-0.9-0.4-1.1-0.4-1.4,0c-0.3,0.4,0.3,1,1.6,1.4c0.5,0.2,1.4,0.3,1.9,0.3c1.5,0,3.7-0.3,4.4-0.7
			c2.1-1,3-3.1,2.4-5.3c-0.5-1.5-2.3-4.1-2.9-4.1c-0.3,0-1.2-0.6-2.1-1.3c-0.8-0.6-3-1.2-4.6-1.3c-2.2-0.1-2.7-0.2-2.8-0.7
			c-0.1-0.2,0.2-1.2,0.6-2.5c0.9-2.9,1.2-4.7,0.8-5.9c-0.2-0.8-0.5-1.1-1.6-2.2c-1.7-1.6-2.4-1.9-4.2-1.9c-1.4,0-2,0.1-3.8,0.9
			c-1,0.4-2.6,1.5-2.6,1.7c0,0.1-0.1,0.4-0.3,0.6C105.1,82.8,105.1,83.9,105.8,83.9z"/>
		<path class="st1" d="M93.3,86.4c-1.2-1.1-1.4-1.4-1.1-1.8c0.1-0.1,0.4-0.5,0.7-0.8c0.8-0.9,1.4-2.3,1.5-3.6c0.1-1.6-0.2-2.5-1-3.1
			c-0.8-0.6-2.3-0.9-2.8-0.7c-0.5,0.3-0.8,0-0.4-0.5c0.6-0.8,1.4-6.3,1.2-7.7c-0.2-1.5-1.8-4.1-3.1-5.4c-1.2-1.1-3.7-2.2-5.8-2.5
			c-1.5-0.2-5.3-0.1-7.1,0.2c-2.7,0.5-5.9,1.7-7.4,2.7c-0.9,0.6-2.2,2.2-2.4,2.8c-0.1,0.2,0,0.5,0.2,0.6c0.2,0.2,0.3,0.2,0.6-0.1
			c0.2-0.2,0.3-0.4,0.3-0.5c0-0.2,2-2.3,2.2-2.3c0.1,0,0.5-0.2,0.9-0.4c0.4-0.2,0.8-0.4,0.9-0.4c0.1,0,0.2-0.1,0.2-0.2
			c0-0.1,0.2-0.2,0.4-0.2c0.2,0,0.9-0.2,1.5-0.4c2-0.7,2.8-0.8,5.8-0.9c3.5-0.1,4.3,0,6.6,0.9c2,0.8,3.2,2,4.3,4.2
			c1.5,2.9,0.7,7.5-0.8,10.3c-0.1,0.2-0.2,0.5-0.2,0.6c0,0.3,0.8,0.4,2.6,0.1c0.7-0.1,1.7,0.3,1.9,0.8c0.4,0.9,0.5,1.4,0.2,2.6
			c-0.1,0.7-0.3,1.2-0.4,1.3c-0.3,0.2-1.9,2.4-2,2.8c-0.2,0.9,1.7,2,2.1,2.7c2.8,4.1-1.7,9.7-6.3,7.4c-0.6-0.3-2-0.7-2.7-0.8
			c-0.4,0-0.8-0.1-1-0.2c-0.2-0.1-0.3,0-0.3,0.1c0,0.2,2,1.2,2.4,1.2c0.2,0,0.4,0.1,0.5,0.2c0,0.1,0.5,0.3,1.1,0.5
			c1.3,0.4,4.5,0.3,5.5-0.1c0.3-0.1,1-0.7,1.4-1.2c0.7-0.8,0.9-1.2,1.4-2.6c0.5-1.6,0.5-1.7,0.4-2.7C95,88.1,94.8,87.8,93.3,86.4z"
			/>
		<path class="st1" d="M47.1,74.9c1.9-0.5,4.3,1.6,5.6,0.6c1.8-1.2-2.6-1.9-3.2-1.9c-2.2-0.1-5.5,0-6.9,1.9c-1.3,1.7-1.1,5,0.7,6.4
			c0.3,0.2,0.6,0.4,0.8,0.4c0.3,0,0.8-0.5,0.6-0.6c-0.1-0.1-0.2,0-0.3,0.1c-0.1,0.2-0.2,0.2-0.5-0.2c-0.2-0.3-0.4-0.8-0.4-1.8
			c-0.2-2.2,1.3-4,3.3-4.8C46.9,74.9,47,74.9,47.1,74.9z"/>
		<path class="st1" d="M65.3,91.8c0.2,0,0.4-0.2,0.6-0.5c0.2-0.4,1.3-1.4,1.9-1.8c0.1-0.1,0.4-0.3,0.8-0.5c1.5-1.1,2.1-1.3,3.8-1.5
			c1.5-0.1,1.7-0.1,2.7,0.2c1.1,0.4,2.1,1,2.1,1.4c0,0.7,2.9,2.6,4.2,2.8c0.2,0,0.6,0.1,0.7,0.2c0.5,0.2,0-0.5-0.8-0.9
			c-1.3-0.8-2.4-1.7-2.9-2.3c-0.3-0.4-1.1-1.1-1.8-1.6l-1.3-0.9l-2.2,0c-1.2,0-2.4,0.1-2.6,0.1c-0.8,0.2-4.6,3.2-5,3.9
			c-0.1,0.2-0.2,0.2-0.6,0.1c-0.6-0.3-2.4-1.1-2.7-1.2c-0.2-0.1-0.6-0.2-0.8-0.3c-0.9-0.3-4.1-0.5-5.4-0.3c-1,0.2-1.4,0.4-2.4,1.1
			c-2,1.3-3.4,3.1-3.7,4.4c-0.3,1.1-0.6,3.1-0.9,4.5c-0.2,1.5-0.8,3.4-1.1,4.1c-0.1,0.3-0.7,1-1.3,1.5c-0.9,0.9-1,1.1-0.8,1.3
			c0.1,0.1,0.3,0.3,0.3,0.3c0.1,0,2-1.8,2.3-2.2c0.1-0.1,0.3-0.4,0.3-0.7c0.1-0.2,0.2-0.4,0.3-0.4s0.1-0.2,0.1-0.4
			c0-0.2,0.2-0.8,0.4-1.4c0.2-0.5,0.5-1.8,0.6-2.7c0.1-1,0.4-2.2,0.5-2.7c0.3-1,1.3-2.7,1.8-3.1c0.2-0.1,0.3-0.3,0.3-0.5
			c0-0.1,0-0.2,0.1-0.2c0.1,0.1,0.5-0.2,0.9-0.6c1.4-1.1,1.8-1.2,4.4-1.2c2.6,0,3.2,0.2,5.5,1.3C64.4,91.4,65.1,91.8,65.3,91.8z"/>
	</g>
</g>
</svg>
