<?xml version="1.0" encoding="utf-8"?>
<!-- Generator: Adobe Illustrator 19.0.0, SVG Export Plug-In . SVG Version: 6.00 Build 0)  -->
<svg version="1.1" id="Layer_1" xmlns="http://www.w3.org/2000/svg" xmlns:xlink="http://www.w3.org/1999/xlink" x="0px" y="0px"
	 viewBox="-224 310.4 162.8 173.6" style="enable-background:new -224 310.4 162.8 173.6;" xml:space="preserve">
<style type="text/css">
	.st0{fill:#FFFFFF;stroke:#FFFFFF;stroke-width:2;stroke-miterlimit:10;}
</style>
<g>
	<g>
		<path class="st0" d="M-145.3,311.4c0.9-0.1,0.9,0.5,1.6,0.5c-1.3,4.6,1.4,13.8-2.1,19.5C-145.4,323.5-145.9,317.5-145.3,311.4z"/>
	</g>
	<g>
		<path class="st0" d="M-180.2,322c4.6,3.3,7.4,8.5,11.1,12.7C-173.6,331.2-178.1,327.8-180.2,322z"/>
	</g>
	<g>
		<path class="st0" d="M-108.9,330.4c0.9-0.1,0.9,0.5,1.6,0.5c-2.5,4-3.8,9.3-7.4,12.1C-114.6,339.1-109.6,335.6-108.9,330.4z"/>
	</g>
	<g>
		<path class="st0" d="M-202.4,337.3c3.7,2.9,4.4,8.7,9,10.6C-197.8,347.8-200.7,341.8-202.4,337.3z"/>
	</g>
	<g>
		<path class="st0" d="M-87.7,351c-4,3.6-9.3,5.9-14.8,7.9C-98.5,355.4-93.3,353-87.7,351z"/>
	</g>
	<g>
		<path class="st0" d="M-200.3,372.2c-6,2.1-12.7,0-19.5-1.1c-0.3-0.5-0.6-0.9,0-1.1C-213.6,369.8-207.6,373-200.3,372.2z"/>
	</g>
	<g>
		<path class="st0" d="M-121.5,370.6c0.1-0.6,1-0.4,1.6-0.5c6.4,6.3,9.4,18.7,7.4,31.7C-112.9,390-113.9,376.6-121.5,370.6z"/>
	</g>
	<g>
		<path class="st0" d="M-80.3,375.9c-2.9,3.1-10.9,2.7-14.3,3.7C-92,375.9-84.1,376.9-80.3,375.9z"/>
	</g>
	<g>
		<path class="st0" d="M-64.5,397c-7.2,2.4-18.1,0.3-26.4,1.1c3.3-2.6,9-2.1,13.2-2.1C-72.6,396-68.2,395.8-64.5,397z"/>
	</g>
	<g>
		<path class="st0" d="M-223,398.6c5.2,1.6,14.4-2.2,19,2.1c-6.2-0.8-12.2-0.2-18.5,0C-222.4,399.8-223.1,399.6-223,398.6z"/>
	</g>
	<g>
		<path class="st0" d="M-86.7,420.8c-3.9-0.7-7.7-4.3-10.6-4.2C-93.4,413.5-88.5,418.4-86.7,420.8z"/>
	</g>
	<g>
		<path class="st0" d="M-192.3,418.7c-1.6,2.6-5.4,2.8-7.9,4.2c-2.5,1.3-4.5,4.4-7.4,3.2c-1-2.5,1.9-1,2.1-1.1
			C-201.6,423.4-198.3,418.9-192.3,418.7z"/>
	</g>
	<g>
		<path class="st0" d="M-105.7,427.7c5,1,4.1,7.9,9,9C-100.8,438.8-103.9,431.3-105.7,427.7z"/>
	</g>
	<g>
		<path class="st0" d="M-182.8,430.8c0.3,2.9-2.2,7.6-5.3,9C-186.9,436.3-184.8,433.6-182.8,430.8z"/>
	</g>
	<g>
		<path class="st0" d="M-130,372.2c0.2-0.8,0.5,0.1,1.1,0c8.4,9.8,12.5,24.6,7.4,40.2c-1.6-1.4,0.8-4.6,1.1-6.9
			C-118.8,392.4-124.5,379.3-130,372.2z"/>
	</g>
	<g>
		<path class="st0" d="M-144.8,482.6c-6.1,1.6-9.5-1.4-12.7-4.2c1.2-16.3-5.5-35-14.3-47.6c-9.7-13.9-27.5-29.4-18-52.3
			c4.4-10.5,12.8-16.3,21.1-24.8c13.7-6.3,26.9-6,38.6-0.5c14.5,6.8,27.9,21.1,29.6,41.2c2.2,26.8-17.2,37-29.1,52.3
			C-138.1,457.8-136.7,471.5-144.8,482.6z M-102.5,404.9c5.4-31.7-26-61.5-59.2-52.3c-11.9,7.4-24.9,16.6-25.9,33.3
			c3.2-2.8,4.7-7.2,9.5-8.5c-4.4,5.6-12.2,9.1-10,18.5c4.9-2.9,5.8-9.7,11.6-11.6c-2.7,6-14.8,11.7-7.9,19
			c3.9-4.4,6.7-9.9,11.1-13.7c-1.1,6.1-8.6,10.8-11.1,15.9c1.8,1.2,1.6,4.3,3.7,5.3c2.7-4,8.9-9.4,9-12.7c0.7-0.7,1.9-0.7,2.6,0
			c-2.3,6.3-16,12.4-6.9,19c2.7-3.6,6.5-9,9-11.1c0.4,5.9-13.3,11.7-4.8,18c2.2-3.2,5.8-6.8,6.9-9.5c2.7,4.9-5.8,6.3-5.8,11.1
			c0,1.7,3.9,6.2,5.8,9c3.5,5,5.5,8.6,7.9,11.1c1.1,3.3,1,8.2,4.2,10.6c2.6-10.9-5.2-23.3-6.3-32.2c0.5,0,0.6-0.4,1.1-0.5
			c2.1,1.1,1.7,4.6,3.2,6.3c2.5,0.3,3.3-1,4.2-2.1c-1.3-2.7-3.9-8.2,0-10c4.9,2.2,0.1,11.3,5.8,11.6c1.7,0.1,1.7-1,3.7-1.6
			c-0.2-3.9,0.2-7.2,2.6-8.5c0.1,0.8,1.2,0.4,1.6,0c0.3,0.8,0.8,1.3,1.1,2.1c-0.5,2.3-1.8,3.8-2.6,5.8c1,1.2,1.8,2.5,4.2,2.1
			c-0.8-4.1,4.4-6.9,6.9-4.2c0.2,3.2-3.3,2.7-3.7,5.3c1.6,1.9,4.5-2.1,5.3,0.5c-8.1,7.2-15.8,14.9-15.9,30.1c0.9,0,1.8,0,2.6,0
			C-132.9,440.4-106.8,429.9-102.5,404.9z M-176.5,420.8c1.9,2.5,2.5,5.9,5.3,6.3c-7.3-11.4-17.3-20-18.5-37.5
			C-191.7,402-182.3,413.4-176.5,420.8z M-149.5,424.5c-0.2-1.7,0.7-4.6-1.1-4.8C-150.6,421.7-150.9,423.9-149.5,424.5z
			 M-138.4,424.5c0-0.9,2.3-3.3,0-3.2C-137.9,422.7-140.1,423.8-138.4,424.5z M-157.5,455.1c-1.6-11.2-7.6-20.5-13.7-26.4
			C-164.8,435.7-161.3,445.6-157.5,455.1z M-154.8,431.9c2,8,5.7,16.7,4.8,25.9c1.7,1.1,4.4,1.2,6.3,2.1c-0.1-13,6.6-19.1,11.6-26.9
			c-1-3.2-6.8-1.6-8.5-4.2c-1.1,1.3-3,2-4.8,2.6c-1.7-0.6-3-1.6-4.2-2.6C-151,431.1-151.4,432.1-154.8,431.9z M-150.6,460.4
			c-0.7,0.1-1.6-2.1-2.1-0.5C-152,459.8-150.7,461.7-150.6,460.4z M-145.3,469.9c2.5-0.3,1.2-4.3,3.2-6.3c-2.1,0.2-2.8-3.8-4.8-2.1
			C-144.4,462.8-144.8,466.9-145.3,469.9z M-152.7,467.3c0-1.6-0.5-2.7-1.6-3.2C-154.3,465.7-153.8,466.8-152.7,467.3z
			 M-150.6,468.9c1.1-1.1,0.3-2.5-1.1-2.6C-151.4,467.2-151.4,468.4-150.6,468.9z M-154.3,470.5c0.3,0,0.7,0,1.1,0
			c0-0.4,0-0.7,0-1.1c-0.4,0-0.7,0-1.1,0C-154.3,469.8-154.3,470.1-154.3,470.5z M-145.3,476.8c1.3-0.3,2.6-3.3,1.6-4.2
			C-144.1,474.2-146.1,474.1-145.3,476.8z M-146.9,476.3c0.1-0.7,0.1-3.8-0.5-2.1C-147.5,474.9-147.5,478-146.9,476.3z
			 M-153.2,476.3c1.2,1.3,2.8,2.2,4.8,2.6C-148.9,477.2-152.1,474-153.2,476.3z M-152.7,480c2,1.5,5.2,1,7.9,0.5
			c0.1-1.5-1.5-1.3-2.1-2.1C-146.6,483-151.6,478.4-152.7,480z"/>
	</g>
</g>
</svg>
