<?xml version="1.0" encoding="utf-8"?>
<!-- Generator: Adobe Illustrator 19.0.0, SVG Export Plug-In . SVG Version: 6.00 Build 0)  -->
<svg version="1.1" id="Layer_1" xmlns="http://www.w3.org/2000/svg" xmlns:xlink="http://www.w3.org/1999/xlink" x="0px" y="0px"
	 viewBox="0 0 92 64.1" style="enable-background:new 0 0 92 64.1;" xml:space="preserve">
<style type="text/css">
	.st0{fill-rule:evenodd;clip-rule:evenodd;fill:#010101;stroke:#010101;stroke-miterlimit:10;}
	.st1{fill-rule:evenodd;clip-rule:evenodd;fill:#010101;stroke:#010101;stroke-width:2;stroke-miterlimit:10;}
</style>
<g>
	<g>
		<path class="st0" d="M90.4,58.5c-16.5,5.8-47.2,6.1-71.4,3.3C11.2,61,4.9,60,0.5,62.1C0.3,40.6,2.4,16.3,2.9,1.2
			C29.8,1,59.7-0.5,86.4,1.7c-22.3,2.4-53.9,1-80.1,2c0.4,19.5-2,39.4-0.9,52.8c22.5,4.6,59.7,6.2,80.9,0.3
			c3.7-16.2-0.4-40.5,1-52.8C93.1,21.2,91.5,43.3,90.4,58.5z"/>
	</g>
	<g>
		<path class="st0" d="M22.9,11.7c7-1.7,9.1,9,3.7,10.8C17.5,25.6,14.9,12.5,22.9,11.7z M21.4,13.5c0.8,0.1,0.9-0.5,1.3-0.9
			C22,12.6,21.6,13,21.4,13.5z M20.7,14.5c0-0.3,0.1-0.7-0.2-0.7C20.3,14,20.3,14.4,20.7,14.5z M27.9,14.5
			C27.1,13.8,27.4,15,27.9,14.5L27.9,14.5z M24.4,15.2c0.5,0,0.9,0,0.9-0.5C24.8,14.6,24.3,14.6,24.4,15.2z M19.4,16.1
			c-0.1-0.5,0.8-0.9,0.2-1.3C19.5,15.1,19.1,16,19.4,16.1z M23.3,16.3c0.1,0,0.2,0,0.4,0c0-0.2,0.2-0.3,0.2-0.5c-0.2,0-0.4,0-0.6,0
			C23.3,15.9,23.3,16.1,23.3,16.3z M19.4,16.8C18.9,18,19.7,16.3,19.4,16.8L19.4,16.8z M22.2,17.2c0.3,0,0.6,0,0.6-0.4
			c-0.1,0-0.2,0-0.4,0C22.4,17,22.2,17.1,22.2,17.2z M20,19.2c-0.5-0.2,0.1-0.8,0.2-1.1c-0.3,0-0.6,0-0.7,0.2
			C19.5,18.6,19.7,19.7,20,19.2z M26,21.6c0.2-0.3,1.5-0.5,0.9-0.9C26.8,21.1,25.4,21.1,26,21.6z M23.1,21.8c0.5-0.2,1-0.2,1.6-0.2
			c0.1-0.7-1-0.2-1.3-0.5C23.9,21.8,22.5,21.5,23.1,21.8z"/>
	</g>
	<g>
		<path class="st1" d="M36,20.7c2,1.7,3.2,4.4,4.4,7c2.9,6.2,6,12.8,9.1,19.4c0.5,1.1,1.4,2.4,0.9,3.7c-2.1,0.8-4.6,0.3-7,0.3
			c-7.1,0-14.7,0.1-22-0.5c-0.5-1.4,0.3-3,0.9-4.2c1.7-3.7,3.9-7.4,5.8-11.2C30.5,30.1,32.6,24.8,36,20.7z M21.7,49.8
			c8.2-0.1,19.6,1.2,27.9,0c-4.3-9.7-8.3-19.6-13.6-28.3C30.7,30.4,26.2,40.2,21.7,49.8z"/>
	</g>
	<path class="st1" d="M65.1,29.4c-2.1-3.8-4.7-7.5-6.8-11.7c-0.7-1.5-1.9-4.5-3-3.7c-0.1-0.3-0.2,0-0.2,0.3
		c-1.6,1.2-2.5,3.1-3.7,4.9c-3.1,4.7-5.8,9.7-8.3,14.9l0.4,0.7c3.6-7.2,7.6-14.1,11.8-20.3c0.3-0.1,0.3,0.2,0.5,0.2
		c5.8,11.7,13.8,22.2,17.8,35.1C68.4,50,61,50.9,58,50.2c-2.9,0.4-7.1,0.3-11.2,0l-7.1,0.1c8.2,0.7,17.8,1,24.1,0.7
		c3.6-0.2,7.6,0.3,11.2-1C72.2,42.5,69.1,36.5,65.1,29.4z"/>
</g>
</svg>
