<?xml version="1.0" encoding="utf-8"?>
<!-- Generator: Adobe Illustrator 19.0.0, SVG Export Plug-In . SVG Version: 6.00 Build 0)  -->
<svg version="1.1" id="Layer_1" xmlns="http://www.w3.org/2000/svg" xmlns:xlink="http://www.w3.org/1999/xlink" x="0px" y="0px"
	 viewBox="0 0 119 120" style="enable-background:new 0 0 119 120;" xml:space="preserve">
<style type="text/css">
	.st0{fill-rule:evenodd;clip-rule:evenodd;fill:#FFFFFF;stroke:#FFFFFF;stroke-miterlimit:10;}
</style>
<g>
	<path class="st0" d="M91.9,29.3C86.1,19.4,75.6,7.3,72.8,0.5C61.2,0,48.4,12.9,40,16.2c1.1,2.5,6.5,7.4,3.6,10.8
		c-5.6,3-8.3-4.5-12.8-5.5c-8.8,3.2-19.2,13.7-30.2,20C4,52,13,64.8,17.2,73.7c3.3-2.8,3.4-8.1,9.7-8.8c7.3,5.5,11,16.9-0.2,22
		c8.8,13.7,13.2,26.8,22.6,32.6c11.1-6,15.7-8.5,26.3-14.5c-8.8,0.3-18.8,11-25.2,12c7.2-6,18.3-11,24.5-15.4
		c3.6,7.9,12.2,14.4,18.8,10.4c5.7-3.5,5.1-11,2.4-18.1c8.3-5,18.2-8.5,20.5-16.9c-4.6,6.2-16.8,14.6-23.2,16.6
		c4.6-6,12.7-10.9,21.2-16.7c0.5-1.4,0-3,0-4.5c1.3,1.5,2.1,4.6,3.5,5.5c0.1,0,0.1,0,0.2-0.1c-0.1-0.6-0.2-1.1-0.3-1.7
		c-5.6-9-6.5-16.8-13.3-25.6C121.1,41.7,103.4,24.2,91.9,29.3z M90.3,30.9c-8-3.5-14.8-20.6-20.6-28C78.3,7.8,85.5,22.9,90.3,30.9z
		 M30.2,23.8c4.6,1.7,8.4,6.2,13.4,6.4C37.1,34.8,32.8,29.4,30.2,23.8z M111.8,73.8C105.9,80,96,88,88.4,91.2
		c3.3,3.8,9.9,13.6,5,17.7c-5.6,4.6-16.2-4.3-16.7-12.2c-7.9,5.1-18.1,11.7-28.9,17.9c-7.3-8.5-10-14.1-17.3-26.7
		c15.1-7.8-2-36.5-13.7-20.4c-5.6-9.2-8.5-15.5-13.1-23.9c6.6-6.1,14.1-11.3,23.4-17.4c7.3,16.2,26.4,6.8,17.9-9
		C53.3,11.9,58,6.4,66.3,4.9c8.1,7.7,14.3,23.9,23.3,31.5c4.4-6.6,13.2-6.7,17.3,1c1.2,7-9.1,4.7-10.4,9.8
		C101.6,54.6,106.4,64.5,111.8,73.8z M103.4,50.3c2.9,4.3,8.1,11.2,7.7,16.8c-3.3-5.5-8.6-14.6-11.2-20.5c4.8,0,9.7-4,9.2-8.5
		C111.9,41.7,107.3,47,103.4,50.3z"/>
</g>
</svg>
