<?xml version="1.0" encoding="utf-8"?>
<!-- Generator: Adobe Illustrator 19.0.0, SVG Export Plug-In . SVG Version: 6.00 Build 0)  -->
<svg version="1.1" id="Layer_1" xmlns="http://www.w3.org/2000/svg" xmlns:xlink="http://www.w3.org/1999/xlink" x="0px" y="0px"
	 viewBox="0 0 150.6 162.6" style="enable-background:new 0 0 150.6 162.6;" xml:space="preserve">
<style type="text/css">
	.st0{fill-rule:evenodd;clip-rule:evenodd;fill:#FFFFFF;stroke:#FFFFFF;stroke-miterlimit:10;}
	.st1{fill:#FFFFFF;stroke:#FFFFFF;stroke-miterlimit:10;}
</style>
<g>
	<g>
		<path class="st0" d="M71.6,62.2c8.2-1.7,14.1,4.9,13.7,12.6c-0.6,13.4-21.5,16.6-23.6,3.1C60.7,71,65.6,63.5,71.6,62.2z
			 M77.8,68.1c1,0,2-0.1,2-1.2C78.7,66.9,77.7,66.9,77.8,68.1z M73.1,71.6c0.3-1,3.4-1.3,2.4-2.4C75,70.2,72.3,70.8,73.1,71.6z
			 M75.5,74.8c0.8-0.8,2.6-0.5,2.7-2C77.2,73.1,75.1,74.4,75.5,74.8z M80.2,80.7c1.1-0.3,2.4-2.6,1.6-3.5
			C80.7,77.8,80.1,78.9,80.2,80.7z M75.9,79.9C77.6,77.7,74.9,78.4,75.9,79.9L75.9,79.9z M68,83c-0.1-2.1-1.5-2.9-2.4-4.3
			C65.8,80.8,66.4,82.5,68,83z M72.3,81.9c0-0.7,0.1-1.2,0.4-1.6C71.3,80.1,71.5,81.5,72.3,81.9z M73.9,84.6c0.7-0.1,2,0.4,1.6-0.8
			C74.6,83.7,74,83.9,73.9,84.6z"/>
	</g>
	<g>
		<g>
			<path class="st1" d="M57.4,162.1c-0.4,0-0.9,0-1.3-0.1c-7.9-1.5-10.4-15.7-11.1-27.4c-1-15.8,0.7-36.2,4.8-57.4
				C56.8,40,71.8,0.5,85.5,0.5c0.4,0,0.9,0,1.3,0.1c14.1,2.7,13.8,45.7,6.4,84.8C86.1,122.6,71.2,162.1,57.4,162.1z M85.5,3.8
				c-8.9,0-24.1,29.7-32.5,74c-4,21-5.7,41.1-4.7,56.6c0.9,14.4,4,23.5,8.5,24.3c0.2,0,0.5,0.1,0.7,0.1c8.9,0,24.1-29.7,32.5-74
				c8.7-45.6,5-79.3-3.7-81C86,3.8,85.8,3.8,85.5,3.8z"/>
		</g>
		<g>
			<path class="st1" d="M15.2,117.8C15.2,117.8,15.2,117.8,15.2,117.8c-7.4,0-12.1-1.9-13.9-5.5c-3.7-7.4,6.2-18.1,15-25.8
				c12-10.4,29.4-21.5,48.9-31.2c27.4-13.6,54.3-22.1,70.2-22.1c7.4,0,12.1,1.9,13.9,5.5c3.7,7.4-6.2,18.1-15,25.8
				c-12,10.4-29.4,21.5-48.9,31.2C58,109.3,31.1,117.8,15.2,117.8z M135.4,36.4c-15.4,0-41.7,8.3-68.7,21.7
				c-19.2,9.6-36.4,20.5-48.2,30.8c-11,9.5-16.3,17.7-14.2,21.8c1.2,2.4,5,3.7,11,3.7c15.4,0,41.7-8.3,68.7-21.7
				c19.2-9.6,36.4-20.5,48.2-30.8c11-9.5,16.3-17.7,14.2-21.8C145.1,37.7,141.3,36.4,135.4,36.4z"/>
		</g>
		<g>
			<path class="st1" d="M132,129.4L132,129.4c-14.3,0-42.7-14.5-70.5-36.1C44.2,79.9,29.4,65.7,19.6,53.1
				C12.4,43.7,4.9,31.3,10,24.8c1.7-2.2,4.6-3.3,8.7-3.3c14.3,0,42.7,14.5,70.5,36.1c31.7,24.5,60.5,56.9,51.5,68.5
				C138.9,128.3,136,129.4,132,129.4z M18.6,24.7c-2.9,0-5,0.7-6,2.1c-2.8,3.7,0.8,12.7,9.7,24.2c9.6,12.4,24.2,26.5,41.2,39.6
				c27.3,21.2,54.9,35.4,68.5,35.4c2.9,0,5-0.7,6-2.1c5.6-7.2-13.9-35.2-50.9-63.9C59.8,39,32.3,24.7,18.6,24.7z"/>
		</g>
	</g>
</g>
</svg>
